<svg xmlns="http://www.w3.org/2000/svg" version="1.1" xmlns:xlink="http://www.w3.org/1999/xlink" xmlns:svgjs="http://svgjs.dev/svgjs" viewBox="0 0 600 600"><path d="M276.1976013183594,188.6227569580078C270.05987548828125,189.97006225585938,265.56886800130206,192.66467793782553,264.5209655761719,200.29940795898438C263.4730631510417,207.93413798014322,268.56288146972656,223.05389404296875,269.9101867675781,234.43113708496094C271.2574920654297,245.80838012695312,272.15569559733075,262.12574005126953,272.60479736328125,268.5628662109375C273.05389912923175,274.99999237060547,273.6527048746745,268.113774617513,272.60479736328125,273.05389404296875C271.556889851888,277.9940134684245,268.2634633382161,289.0718485514323,266.3173522949219,298.2035827636719C264.3712412516276,307.33531697591144,263.4730402628581,315.56884765625,260.9281311035156,327.84429931640625C258.38322194417316,340.1197509765625,252.6946029663086,361.5269470214844,251.0478973388672,371.8562927246094C249.40119171142578,382.1856384277344,249.10178883870444,382.93414815266925,251.0478973388672,389.82037353515625C252.99400583902994,396.70659891764325,258.23352813720703,406.1377207438151,262.72454833984375,413.17364501953125C267.21556854248047,420.2095692952474,270.5089874267578,428.8922068277995,277.9940185546875,432.0359191894531C285.4790496826172,435.17963155110675,298.05389912923175,434.88022867838544,307.6347351074219,432.0359191894531C317.215571085612,429.1916097005208,328.7425079345703,423.35329182942706,335.4790344238281,414.9700622558594C342.21556091308594,406.5868326822917,344.61077880859375,392.3652852376302,348.05389404296875,381.7365417480469C351.49700927734375,371.10779825846356,353.7425181070964,360.4790395100911,356.1377258300781,351.1976013183594C358.5329335530599,341.9161631266276,359.88022867838544,333.6826426188151,362.4251403808594,326.04791259765625C364.9700520833333,318.4131825764974,369.76048787434894,310.9281463623047,371.4071960449219,305.38922119140625C373.0539042154948,299.8502960205078,374.7006022135417,300.2993927001953,372.3053894042969,292.8143615722656C369.91017659505206,285.32933044433594,363.02394104003906,266.91615804036456,357.0359191894531,260.4790344238281C351.0478973388672,254.04191080729166,341.9161783854167,259.28143819173175,336.37725830078125,254.19161987304688C330.8383382161458,249.10180155436197,327.3952128092448,237.42515563964844,323.8023986816406,229.94012451171875C320.20958455403644,222.45509338378906,318.56288655598956,215.56885782877603,314.82037353515625,209.28143310546875C311.07786051432294,202.99400838216147,307.7844492594401,195.6586888631185,301.3473205566406,192.215576171875C294.9101918538411,188.7724634806315,282.3353271484375,187.27545166015625,276.1976013183594,188.6227569580078C270.05987548828125,189.97006225585938,265.56886800130206,192.66467793782553,264.5209655761719,200.29940795898438" fill="#0ff5cb"></path></svg>