<svg xmlns="http://www.w3.org/2000/svg" version="1.1" xmlns:xlink="http://www.w3.org/1999/xlink" xmlns:svgjs="http://svgjs.dev/svgjs" viewBox="0 0 600 600"><path d="M23.802388176230465 204.79041980126624C17.66466234615234 206.1377250991178 13.173654859173155 208.83234078108396 12.125752434042965 216.4670708022428C11.077850008912776 224.10180082340165 16.167668327597653 239.22155688622718 17.514973625449215 250.59879992821936C18.862278923300778 261.97604297021155 19.76048245520184 278.29340289452796 20.20958422115234 284.7305290541959C20.658685987102842 291.1676552138639 21.25749173254559 284.28143746077143 20.20958422115234 289.2215568862272C19.161676709759092 294.1616763116829 15.868250196087217 305.23951139469074 13.922139152792965 314.3712456069303C11.976028109498714 323.50297981916987 11.077827120729182 331.7365104995084 8.532917961386715 344.0119621596647C5.988008802044249 356.2874138198209 0.2993898241796842 377.6946098647428 -1.347315803261722 388.0239555678678C-2.9940214307031283 398.3533012709928 -3.293424303424473 399.1018109959277 -1.347315803261722 405.9880363784147C0.5987926969010289 412.8742617609017 5.838314995078122 422.30538358707355 10.32933519771484 429.3413078627897C14.82035540035156 436.3772321385058 18.113774284628903 445.0598696710579 25.59880541255859 448.20358203271155C33.08383654048828 451.3472943943652 45.65868598710284 451.04789152164386 55.239521965292965 448.20358203271155C64.82035794348309 445.35927254377924 76.3472947924414 439.5209546726855 83.08382128169922 431.1377250991178C89.82034777095703 422.7544955255501 92.21556566646484 408.5329480808886 95.65868090083984 397.9042045913053C99.10179613521484 387.275461101722 101.34730496496746 376.64670235334955 103.74251268794922 367.3652641616178C106.13772041093097 358.08382596988605 107.48501553625653 349.85030546207355 110.02992723873047 342.2155754409147C112.5748389412044 334.5808454197558 117.36527473222003 327.0958092055631 119.01198290279297 321.5568840346647C120.6586910733659 316.01795886376624 122.30538907141278 316.46705554345374 119.91017626216797 308.98202441552405C117.51496345292315 301.49699328759436 110.62872789791015 283.083820883623 104.64070604732422 276.64669726708655C98.65268419673828 270.2095736505501 89.52096524328778 275.4491010349902 83.98204515865234 270.3592827163053C78.4431250740169 265.2694643976204 74.9999996671159 253.59281848290686 71.40718553951172 246.10778735497718C67.81437141190753 238.6227562270475 66.16767341386065 231.73652067203446 62.42516039302734 225.44909594872718C58.682647372194026 219.1616712254199 55.38923611731121 211.82635170637693 48.952107414511715 208.38323901513343C42.51497871171222 204.94012632388993 29.94011400630859 203.44311450341468 23.802388176230465 204.79041980126624C17.66466234615234 206.1377250991178 13.173654859173155 208.83234078108396 12.125752434042965 216.4670708022428 " fill="#0ff5cb" transform="matrix(-1,0,0,1,623.2075653076172,0)"></path></svg>